<?xml version="1.0" encoding="UTF-8"?>
<svg id="Layer_1" data-name="Layer 1" xmlns="http://www.w3.org/2000/svg" version="1.1" viewBox="0 0 213 213">
  <defs>
    <style>
      .cls-1 {
        fill: #000;
        stroke-width: 0px;
      }
    </style>
  </defs>
  <path class="cls-1" d="M74.7,149.4v-10.6h9.9v-42.9h-9.9v-10.6h38.7c4.6,0,8.6.7,12,2,3.4,1.3,6.1,3.2,8,5.6,1.9,2.4,2.8,5.3,2.8,8.7v.9c0,2.9-.6,5.3-1.9,7.2-1.3,1.9-2.8,3.3-4.6,4.3-1.8,1-3.4,1.7-5,2.2v1.6c1.6.4,3.3,1.1,5.2,2.1,1.9,1,3.5,2.5,4.8,4.4,1.3,1.9,2,4.4,2,7.4v.9c0,3.5-1,6.6-2.9,9.1-1.9,2.5-4.6,4.5-8,5.8-3.4,1.3-7.4,2-11.9,2h-39.1ZM98.8,111.7h13.1c2.9,0,5.4-.6,7.3-1.9,1.9-1.3,2.8-3.1,2.8-5.3v-.9c0-2.3-.9-4.1-2.8-5.4-1.9-1.3-4.3-1.9-7.3-1.9h-13.1v15.4ZM98.8,138.4h13.3c3.1,0,5.6-.6,7.5-1.9,1.9-1.3,2.8-3.1,2.8-5.5v-.9c0-2.4-.9-4.2-2.8-5.5-1.9-1.3-4.4-1.9-7.5-1.9h-13.3v15.8Z"/>
  <path class="cls-1" d="M121.9,80.7l4.5-.8c7.4-1.3,13.3-6,15.6-12.4l1.4-3.9,1.2,4.1c1.9,6.7,7.5,12.2,14.7,14.6l4.4,1.5-4.5.8c-7.4,1.3-13.3,6-15.6,12.4l-1.4,3.9-1.2-4.1c-1.9-6.7-7.5-12.2-14.7-14.6l-4.4-1.5Z"/>
</svg>