<?xml version="1.0" encoding="UTF-8"?>
<svg id="Layer_1" data-name="Layer 1" xmlns="http://www.w3.org/2000/svg" xmlns:xlink="http://www.w3.org/1999/xlink" version="1.1" viewBox="0 0 213 213">
  <defs>
    <style>
      .cls-1 {
        clip-path: url(#clippath);
      }

      .cls-2, .cls-3 {
        fill: none;
      }

      .cls-2, .cls-4, .cls-5, .cls-6 {
        stroke-width: 0px;
      }

      .cls-3 {
        stroke: #fff;
        stroke-dasharray: 0 0 5 5;
      }

      .cls-4 {
        fill: #000;
      }

      .cls-5 {
        fill: #fff;
      }

      .cls-6 {
        fill: #231f20;
      }
    </style>
    <clipPath id="clippath">
      <rect class="cls-2" width="213" height="213"/>
    </clipPath>
  </defs>
  <g class="cls-1">
    <g>
      <path class="cls-5" d="M106.5,197c50,0,90.5-40.5,90.5-90.5S156.5,16,106.5,16,16,56.5,16,106.5s40.5,90.5,90.5,90.5Z"/>
      <path class="cls-3" d="M106.5,212.5c58.5,0,106-47.5,106-106S165,.5,106.5.5.5,48,.5,106.5s47.5,106,106,106Z"/>
    </g>
  </g>
  <path class="cls-6" d="M68.9,143v-12.3h11.5v-49.6h-11.5v-12.3h45c5.3,0,10,.8,14,2.3,4,1.5,7,3.7,9.3,6.5,2.2,2.8,3.3,6.1,3.3,10v1.1c0,3.4-.8,6.2-2.3,8.3-1.5,2.2-3.3,3.8-5.3,5-2,1.2-4,2-5.8,2.5v1.9c1.8.4,3.8,1.2,6,2.4s4,2.8,5.6,5c1.5,2.2,2.3,5.1,2.3,8.6v1.1c0,4.1-1.1,7.6-3.4,10.5-2.3,2.9-5.4,5.2-9.3,6.7-4,1.6-8.6,2.3-13.8,2.3h-45.5ZM96.9,99.3h15.3c3.4,0,6.2-.7,8.4-2.2,2.2-1.5,3.3-3.5,3.3-6.1v-1.1c0-2.7-1.1-4.8-3.3-6.2-2.2-1.4-5-2.2-8.5-2.2h-15.3v17.8ZM96.9,130.2h15.5c3.6,0,6.5-.7,8.7-2.2,2.2-1.5,3.3-3.6,3.3-6.4v-1.1c0-2.8-1.1-4.9-3.3-6.4-2.2-1.5-5.1-2.2-8.8-2.2h-15.5v18.2Z"/>
  <path class="cls-4" d="M125.4,67.4l4.1-.6c6.6-1,12-4.9,14.2-10.4l1.3-3.4,1,3.6c1.6,5.8,6.4,10.8,12.9,13l4,1.4-4.1.6c-6.6,1-12,4.9-14.2,10.4l-1.3,3.4-1-3.6c-1.6-5.8-6.4-10.8-12.9-13l-4-1.4Z"/>
</svg>